<svg xmlns="http://www.w3.org/2000/svg" xmlns:xlink="http://www.w3.org/1999/xlink" width="160" height="160" viewBox="0 0 160 160">
    <defs>
        <filter id="eyp26kd2aa" width="109.3%" height="109.3%" x="-4.7%" y="-3.3%" filterUnits="objectBoundingBox">
            <feOffset dy="2" in="SourceAlpha" result="shadowOffsetOuter1"/>
            <feGaussianBlur in="shadowOffsetOuter1" result="shadowBlurOuter1" stdDeviation="2"/>
            <feColorMatrix in="shadowBlurOuter1" values="0 0 0 0 0 0 0 0 0 0 0 0 0 0 0 0 0 0 0.3 0"/>
        </filter>
        <rect id="otl3561i0b" width="150" height="150" x="5" y="4" rx="37"/>
    </defs>
    <g fill="none" fill-rule="evenodd">
        <g>
            <g>
                <g>
                    <g transform="translate(-403 -5130) translate(0 5089) translate(403 41)">
                        <use fill="#000" filter="url(#eyp26kd2aa)" xlink:href="#otl3561i0b"/>
                        <use fill="#FFF" xlink:href="#otl3561i0b"/>
                    </g>
                    <g>
                        <path fill="#FFF" fill-rule="nonzero" d="M72.773 0C54.948-.081 19.251 7.084 19.07 45.358c-.153 32.97 22.508 51.371 27.945 51.398 3.967.018 3.994-6.49 7.762-8.113 3.768-1.623 6.898-.53 20.756-.465 15.795.074 44.303-6.528 44.473-42.966C120.164 9.17 90.607.084 72.773 0z" transform="translate(-403 -5130) translate(0 5089) translate(403 41) translate(20 20)"/>
                        <path fill="#5F5F5F" d="M15.077 104.113c10.688 10.564 21.702 14.944 27.33 14.852 3.664-.058 6.258-3.325 7.09-5.568.947-2.558 1.912-4.395.104-5.794-.611-.47-6.49-4.262-9.23-5.912-1.83-1.103-2.357-1.5-4.705 0-2.398 1.526-4.98 4.165-7.11 2.934-2.993-1.731-7.56-6.428-7.56-6.428l-.227-.227s-4.697-4.567-6.427-7.56c-1.232-2.13 1.406-4.714 2.933-7.11 1.496-2.344 1.098-2.885 0-4.705-1.648-2.732-5.075-8.209-5.548-8.82-1.397-1.803-2.114-1.911-6.156-.305C3.227 70.4.06 72.896 0 76.56c-.095 5.624 4.286 16.638 14.85 27.325l.226.228z" transform="translate(-403 -5130) translate(0 5089) translate(403 41) translate(20 20)"/>
                        <path fill="#00C300" fill-rule="nonzero" d="M79.916 31.359c-2.405-.01-3.52 2.46-3.533 5.097-.011 2.47 1.024 5.228 3.486 5.228 2.463 0 3.525-2.731 3.536-5.201.012-2.627-1.082-5.11-3.489-5.124zM69.753 61.563c-1.729.28-2.666.88-2.673 2.284 0 1.051.87 1.754 2.286 1.761 1.803 0 3.66-1.604 3.669-3.465V60.59c-.457.476-1.306.631-1.789.721l-1.493.253z" transform="translate(-403 -5130) translate(0 5089) translate(403 41) translate(20 20)"/>
                        <path fill="#00C300" fill-rule="nonzero" d="M72.773 0C54.948-.081 19.251 7.084 19.07 45.358c-.153 32.97 22.508 51.371 27.945 51.398 3.967.018 3.994-6.49 7.762-8.113 3.768-1.623 6.898-.53 20.756-.465 15.795.074 44.303-6.528 44.473-42.966C120.164 9.17 90.607.084 72.773 0zM56.608 25.118c0-1.332.83-2.02 2.076-2.015 1.245.005 2.064.703 2.059 2.035l-.026 5.393h.056c.826-1.05 2.373-1.737 4.475-1.726 2.492.011 5.353 1.246 5.333 5.353l-.036 7.88c0 1.082-.462 2.023-2.077 2.016-1.616-.007-2.06-.954-2.057-2.035l.034-7.077c0-1.637-.81-2.805-2.593-2.814-1.746.01-3.157 1.43-3.158 3.177l-.03 6.692c0 1.082-.462 2.025-2.078 2.017-1.615-.007-2.062-.953-2.057-2.035l.08-16.86zM46.474 41.946l-1.932-7.753-2.027 7.724c-.277 1.193-1.327 2.047-2.552 2.078-1.224.03-2.315-.772-2.65-1.95l-3.033-10.91c-.162-.591-.037-1.224.338-1.71.374-.485.954-.767 1.567-.761h.154c.922 0 1.719.644 1.914 1.545l2.036 7.803 1.941-7.753c.193-.914 1.003-1.565 1.937-1.557h.887c.926.002 1.724.651 1.916 1.557l1.983 7.834 2.11-7.825c.174-.68.698-1.216 1.374-1.405.676-.189 1.402-.003 1.904.488.502.49.704 1.212.53 1.893l-3.246 10.898c-.354 1.156-1.442 1.93-2.65 1.883-1.21-.046-2.235-.9-2.5-2.08zm8.892 26.176c-5.096-.024-7.525-3.114-7.505-7.362.023-5.048 2.648-7.894 7.415-7.873 3.171.015 6.036 1.956 6.027 3.95 0 .721-.48 1.358-1.442 1.353-2.493-.011-1.38-2.611-4.67-2.627-2.012-.01-3.178 1.846-3.194 5.217-.011 2.524 1.218 4.525 3.485 4.536 2.884.013 2.262-2.955 4.444-2.946 1.047 0 1.736.619 1.727 1.563-.014 1.776-2.037 4.205-6.285 4.189h-.002zm20.328.095c-1.783-.009-2.373-1.121-2.423-2.37-1.623 1.74-3.494 2.343-5.674 2.332-2.344-.01-4.666-1.604-4.653-4.157.016-3.357 2.625-4.29 5.798-4.635l2.524-.265c.992-.107 1.787-.576 1.792-1.74.005-1.165-1.208-1.922-2.596-1.927-3.065-.015-3.155 2.64-4.798 2.632-1.047 0-1.75-.721-1.747-1.562 0-1.61 2.344-3.587 6.585-3.568 3.966.019 6.704 1.28 6.692 4.194l-.033 6.799c0 1.693.415 2.084.413 2.722-.007.914-.887 1.549-1.878 1.545h-.002zm8.596-1.983c0 1.332-.83 2.023-2.075 2.017-1.246-.005-2.064-.705-2.06-2.035l.08-16.855c0-1.333.864-2.021 2.11-2.016 1.245.006 2.03.703 2.024 2.036l-.079 16.853zm-4.432-22.129c-5.635-.025-7.63-3.614-7.61-7.665.02-4.273 2.705-7.59 7.68-7.573 4.977.018 7.63 3.365 7.61 7.64-.019 4.056-2.045 7.625-7.68 7.598zm11.526 22.16c0 1.33-.829 2.02-2.077 2.015-1.247-.005-2.062-.703-2.057-2.035l.08-16.855c0-1.33.863-2.021 2.109-2.016 1.246.005 2.03.703 2.025 2.035l-.08 16.856zm4.46-21.996c-3.737-.018-6.85-1.68-6.834-3.69 0-.902.517-1.702 1.678-1.697 1.783.01 1.94 2.622 5 2.636 1.473 0 2.41-.73 2.414-1.568 0-1.032-.902-1.205-2.37-1.574l-2.433-.599c-2.405-.597-4.27-1.583-4.257-4.327.017-3.324 3.363-4.597 6.222-4.585 3.144.015 6.191 1.241 6.182 3.112 0 .95-.634 1.452-1.709 1.443-1.622 0-1.659-1.97-4.238-1.984-1.443 0-2.317.88-2.32 1.747 0 .949.928 1.178 2.2 1.463l1.726.398c2.344.54 5.147 1.533 5.133 4.381-.015 3.328-3.28 4.85-6.393 4.835v.01z" transform="translate(-403 -5130) translate(0 5089) translate(403 41) translate(20 20)"/>
                    </g>
                </g>
            </g>
        </g>
    </g>
</svg>
