<svg width="28" height="28" viewBox="0 0 28 28" fill="none" xmlns="http://www.w3.org/2000/svg">
<circle cx="14" cy="14" r="14" fill="#00C300"/>
<path d="M8.00345 12.3851C7.38768 11.8309 6.43925 11.8808 5.88506 12.4966C5.33087 13.1123 5.38079 14.0608 5.99655 14.6149L8.00345 12.3851ZM12 18L10.9966 19.1149C11.5765 19.6369 12.4598 19.6271 13.028 19.0923L12 18ZM21.528 11.0923C22.1313 10.5245 22.1601 9.57521 21.5923 8.97195C21.0245 8.36869 20.0752 8.33993 19.472 8.9077L21.528 11.0923ZM5.99655 14.6149L10.9966 19.1149L13.0034 16.8851L8.00345 12.3851L5.99655 14.6149ZM13.028 19.0923L21.528 11.0923L19.472 8.9077L10.972 16.9077L13.028 19.0923Z" fill="white"/>
</svg>
